<?xml version="1.0" encoding="utf-8"?>

<!DOCTYPE svg PUBLIC "-//W3C//DTD SVG 1.1//EN" "http://www.w3.org/Graphics/SVG/1.1/DTD/svg11.dtd">
<svg version="1.1" id="Layer_1" xmlns="http://www.w3.org/2000/svg" xmlns:xlink="http://www.w3.org/1999/xlink" x="0px" y="0px"
	 viewBox="0 0 1177.968 1743.003" enable-background="new 0 0 1177.968 1743.003" xml:space="preserve">
<g>
	<path fill="#141517" stroke="#141517" d="M205.745,116.724c2.72-0.457,5.478-1.323,8.256-0.792
		c4.734,0.914,9.335,2.364,14.005,3.56c21.847,5.456,43.587,11.327,65.397,16.916c0.058,0.138,0.17,0.414,0.228,0.553
		c-24.068-6.126-48.087-12.464-72.134-18.664c-3.129-0.675-6.179-1.897-9.361-2.184c-32.138,5.674-64.228,11.657-96.371,17.31
		c1.249-1.073,2.922-1.094,4.468-1.28c11.115-2.093,22.304-3.809,33.376-6.105c7.396-0.978,14.653-2.789,22.043-3.831
		C185.651,120.204,195.74,118.695,205.745,116.724z"/>
	<path fill="#141517" stroke="#141517" d="M201.903,139.808c17.66-5.308,37.291-2.97,53.464,5.775
		c1.11,0.616,2.231,1.243,3.475,1.589c-5.541,5.929-7.943,14.552-6.482,22.506c0.329,2.641,1.535,5.037,2.226,7.576
		c-3.9-6.976-3.783-15.7-0.871-23.032c-7.879-5.935-17.177-9.808-26.703-12.204c-6.094-1.408-12.342-2.29-18.606-2.184
		C206.239,139.83,204.066,139.952,201.903,139.808z"/>
	<path fill="#645E20" stroke="#645E20" d="M301.76,139.075c2.694,0.016,4.92,1.69,7.257,2.805
		c26.687,13.33,53.406,26.591,80.071,39.964c2.38,1.179,4.936,2.13,6.886,4.006c-0.356-0.069-1.068-0.207-1.424-0.276
		c-5.605-3.092-11.343-5.977-17.198-8.57c-6.333-3.443-12.884-6.482-19.318-9.744c-11.821-5.876-23.637-11.758-35.448-17.65
		c-6.588-3.188-13.017-6.71-19.706-9.68c0.313,4.373,1.323,8.655,1.992,12.979c4.288,25.146,8.511,50.303,12.788,75.454
		c0.372,2.694,1.148,5.355,1.211,8.086c-0.112,0.17-0.324,0.505-0.43,0.675C312.758,204.467,307.36,171.75,301.76,139.075z"/>
	<path fill="#F5C500" stroke="#F5C500" d="M302.881,139.931c6.689,2.97,13.118,6.492,19.706,9.68
		c11.811,5.892,23.627,11.773,35.448,17.65c6.434,3.262,12.985,6.301,19.318,9.744c2.019,2.359,5.148,3.081,7.741,4.601
		c3.097,1.434,5.977,3.592,9.457,3.969c0.356,0.069,1.068,0.207,1.424,0.276c0.967,0.51,1.945,0.994,2.943,1.45
		c2.072,1.344,4.266,2.502,6.62,3.267c0.228,0.122,0.68,0.367,0.909,0.489c1.684,1.148,3.517,2.061,5.456,2.704
		c0.234,0.122,0.701,0.361,0.935,0.483c1.652,1.094,3.453,1.934,5.201,2.864c1.605,0.834,2.444,2.518,3.432,3.948
		c2.449,3.868,5.164,7.566,7.497,11.508c0.436,2.019,1.461,3.841,3.273,4.925c0.313,0.478,0.632,0.962,0.951,1.45
		c0.919,2.46,1.78,5.35,4.367,6.551c1.206,1.408,2.194,2.981,3.071,4.612c0.521,1.53,1.153,3.044,2.109,4.362
		c4.537,6.492,8.671,13.25,13.261,19.7c1.514,2.215,2.672,4.76,4.92,6.37c3.193,4.256,5.919,8.835,8.968,13.197
		c0.829,1.286,1.86,2.492,2.354,3.969c0.25,1.716-0.058,3.448-0.223,5.164c-3.22,31.569-6.296,63.155-9.51,94.724
		c-8.878,3.31-17.979,6.035-26.942,9.128c-34.391,11.513-68.845,22.867-103.204,34.481c-2.662,11.386-4.718,22.915-7.119,34.364
		c-12.427,61.226-24.822,122.458-37.265,183.684c-0.712,4.282-1.966,8.49-2.412,12.815c0.606,3.623,2.173,7.018,3.119,10.567
		c27.962,89.103,55.913,178.206,83.886,267.304c1.589,4.357,2.173,9.218,5.196,12.91c36.064,52.487,72.043,105.026,108.092,157.523
		c1.589,2.285,3.151,4.596,4.681,6.933c2.343,4.872,1.711,10.365,2.38,15.578c0.324,7.688,1.243,15.333,1.562,23.016
		c0.165,3.262,0.733,6.503,0.696,9.781c-3.384,1.222-7.034,1.02-10.541,1.599c-0.533,0.063-55.239,6.423-59.415,6.423
		c-0.917-3.458,0.316-4.224-0.255-16.55c0.313-5.111,0.43-10.222,0.786-15.323c0.305-1.942-0.524-1.982-11.97-13.537
		c-4.344-4.739-58.139-41.815-58.671-42.174c-3.151-1.822-25.158-10.971-38.508-17.033c-0.095-2.163,2.988-46.521,3.124-48.396
		c0.155-1.671,3.589,4.823-50.26-86.569c-6.896-12.327,6.264,16.877-66.146-148.502c-3.626-8.86-3.758,13.639,8.198-174.535
		c0.367-3.868,0.568-7.757,0.436-11.646c-2.343,2.019-4.734,4.043-6.615,6.519c-0.967,1.484-2.899,0.534-3.326,2.906
		c-0.833,2.427-3.804,3.388-4.771,3.788c-0.347-5.133-3.388-39.651-3.549-40.857c-0.494,0.377-0.988,0.77-1.482,1.153l0.335,0.266
		c-1.605,1.678-2.681,1.339-4.84,3.99c-0.122,0.112-0.361,0.324-0.478,0.43c-2.857,1.766-3.795,3.237-4.803,4.197
		c-2.364,1.546-2.251,2.318-3.995,3.512c-1.308-3.82,1.416-13.671,2.221-28.998c-5.137,2.847-11.502,8.134-12.034,8.533
		c-3.283,1.498-5.86,4.155-9.138,5.648c-0.239-5.6-0.149-11.216-0.074-16.81c0.808-3.607,2.826-6.816,4.07-10.286
		c61.912-146.755,40.05-96.62,52.789-115.259c1.07-1.361,8.294-8.47,9.59-9.388c4.745-3.097,18.727-19.294,22.314-21.788
		c4.8-3.2,20.214-20.659,23.382-22.846c2.614-1.769,4.744-4.144,6.864-6.455c-4.84-22.644-10.068-45.208-14.775-67.873
		c0.999-1.945,3.039-3.395,4.723-4.835c2.805-1.955,5.26-4.415,7.412-7.061c1.626-1.865,3.379-3.655,5.339-5.164
		c2.805-1.95,5.265-4.404,7.412-7.056c1.243-1.535,2.683-2.927,4.277-4.096c2.986-2.13,5.595-4.798,7.948-7.603
		c1.429-1.695,3.018-3.283,4.798-4.612c2.981-2.141,5.626-4.771,7.953-7.603c1.44-1.753,3.087-3.347,4.941-4.659
		c0.106-0.17,0.319-0.505,0.43-0.675c-0.064-2.731-0.839-5.393-1.211-8.086c-4.277-25.151-8.501-50.308-12.788-75.454
		C304.204,148.585,303.194,144.303,302.881,139.931z"/>
	<path fill="#151517" stroke="#151517" d="M264.001,143.071c5.409-3.06,12.746-3.007,17.889,0.574
		c-3.39-1.52-7.029-2.715-10.801-2.354C268.623,141.424,266.37,142.497,264.001,143.071z"/>
	<path fill="#141517" stroke="#141517" d="M270.259,150.918c6.801-1.1,14.047,2.965,16.449,9.457
		c1.79,4.835,0.659,10.748-3.214,14.265c-2.88,3.081-7.114,4.851-11.338,4.569c-8.038,0.308-15.641-7.247-14.749-15.386
		C257.88,157.139,263.815,151.821,270.259,150.918z"/>
	<path fill="#141517" stroke="#141517" d="M161.467,154.69c20.163-6.248,42.732-3.788,61.444,5.85
		c18.59,9.468,33.381,26.347,39.789,46.249c6.689,20.364,4.033,43.725-7.576,61.805c0.159-1.195,0.542-2.338,0.909-3.475
		c6.514-20.715,4.054-43.922-6.221-62.995c-4.675-8.867-10.95-16.869-18.292-23.669c-14.191-12.889-32.478-21.114-51.519-23.287
		C173.851,154.318,167.64,154.605,161.467,154.69z"/>
	<path fill="#151517" stroke="#151517" d="M290.751,153.675c2.497,4.914,3.103,10.695,2.184,16.098
		c-0.754,4.011-2.168,8.054-4.888,11.168c0.712-1.599,1.817-2.986,2.513-4.59c2.577-5.892,3.198-12.693,1.307-18.872
		C291.469,156.215,290.932,154.993,290.751,153.675z"/>
	<path fill="#141517" stroke="#141517" d="M126.284,172.09c2.72-1.148,5.701,0.138,8.102,1.488
		c4.118,2.492,7.539,6.099,9.951,10.259c1.504,2.768,2.805,5.94,2.221,9.149c-0.404,2.099-2.428,3.629-4.553,3.538
		c-3.932-0.096-7.257-2.577-10.153-4.994c-3.825-3.57-7.077-8.108-8.038-13.33C123.33,175.931,124.069,173.158,126.284,172.09z"/>
	<path fill="#E2C22E" stroke="#E2C22E" d="M377.352,177.004c5.855,2.593,11.593,5.478,17.198,8.57
		c-3.48-0.377-6.36-2.534-9.457-3.969C382.5,180.086,379.371,179.363,377.352,177.004z"/>
	<path fill="#151517" stroke="#151517" d="M279.148,187.455c3.097-1.105,5.642-3.214,7.906-5.541
		c3.124,9.547,4.532,19.748,3.087,29.747c-1.227,8.671-4.059,17.246-8.984,24.535c2.072-6.933,3.671-14.069,3.836-21.342
		c0.175-8.819-1.28-17.703-4.373-25.97C280.46,188.119,279.754,187.8,279.148,187.455z"/>
	<path fill="#151517" stroke="#151517" d="M262.439,186.1c2.481,1.142,4.989,2.359,7.752,2.63c2.481,0.489,4.957-0.202,7.433-0.361
		c-3.034,1.249-6.524,1.047-9.664,0.319C266.02,188.098,263.932,187.534,262.439,186.1z"/>
	<path fill="#46522E" stroke="#46522E" d="M398.917,187.301c2.518,0.287,4.936,1.328,6.62,3.267
		C403.184,189.803,400.989,188.645,398.917,187.301z"/>
	<path fill="#46512D" stroke="#46512D" d="M406.446,191.057c2.13,0.133,4.133,0.978,5.456,2.704
		C409.963,193.118,408.13,192.205,406.446,191.057z"/>
	<path fill="#535828" stroke="#535828" d="M496.102,1146.529c-0.76-9.595-1.365-19.201-2.072-28.802
		c-0.244-2.694-0.096-5.478-0.972-8.06c-0.993-2.242-2.656-4.075-3.995-6.094c-12.879-18.983-26.012-37.786-38.875-56.774
		c-5.292-7.332-10.111-14.988-15.386-22.33c-18.473-27.027-37.036-53.99-55.557-80.985c-3.443-4.027-4.319-9.377-5.982-14.239
		c-26.4-84.082-52.789-168.165-79.163-252.253c-2.322-7.422-4.606-14.849-7.034-22.235c-1.153-3.289,0.101-6.684,0.691-9.946
		c14.334-70.508,28.605-141.026,42.913-211.54c0.829-3.777,1.349-7.629,2.492-11.332c11.407-4.187,23.037-7.741,34.529-11.678
		c29.593-9.893,59.191-19.775,88.8-29.636c2.242-0.712,4.5-1.413,6.641-2.412c1.132-5.69,1.286-11.508,1.976-17.251
		c2.656-27.112,5.462-54.208,8.102-81.32c0.468-2.694-1.594-4.75-2.911-6.832c-16.614-24.849-33.147-49.745-49.734-74.61
		c-1.86-2.343-4.861-3.464-7.725-3.958c1.652,1.094,3.453,1.934,5.201,2.864c1.605,0.834,2.444,2.518,3.432,3.947
		c2.449,3.868,5.164,7.566,7.497,11.508c1.259,1.525,2.359,3.166,3.273,4.925c0.313,0.478,0.632,0.962,0.951,1.45
		c1.674,2.03,3.14,4.218,4.367,6.551c1.206,1.408,2.194,2.98,3.071,4.612c3.889,5.09,7.183,10.605,10.817,15.88
		c3.129,4.867,6.599,9.521,9.473,14.552c3.193,4.256,5.919,8.835,8.968,13.197c0.829,1.286,1.86,2.492,2.354,3.969
		c0.25,1.716-0.058,3.448-0.223,5.164c-3.22,31.569-6.296,63.155-9.51,94.724c-8.878,3.31-17.979,6.035-26.942,9.128
		c-34.391,11.513-68.845,22.867-103.204,34.481c-2.662,11.386-4.718,22.915-7.119,34.364
		c-12.427,61.226-24.822,122.458-37.265,183.684c-0.712,4.282-1.966,8.49-2.412,12.815c0.606,3.623,2.173,7.018,3.119,10.567
		c27.962,89.103,55.913,178.206,83.886,267.304c1.589,4.357,2.173,9.218,5.196,12.91c36.064,52.487,72.043,105.026,108.092,157.523
		c1.589,2.285,3.151,4.596,4.681,6.933c0.765,1.052,1.849,2.014,2.04,3.384c0.547,3.416,0.505,6.896,0.845,10.344
		c0.616,8.379,1.18,16.757,1.801,25.135c0.138,3.517,0.749,7.013,0.569,10.546c-23.328,2.626-46.652,5.266-69.985,7.873
		c-0.085,0.257-0.189,0.505-0.306,0.746c3.898-0.214,48.839-5.43,65.621-7.232c1.759-0.17,3.517-0.425,5.249-0.797
		C496.914,1153.707,496.234,1150.11,496.102,1146.529z"/>
	<path fill="#DFC23A" stroke="#DFC23A" d="M428.967,212.564c1.259,1.525,2.359,3.167,3.273,4.925
		C430.428,216.405,429.403,214.583,428.967,212.564z"/>
	<path fill="#46647D" stroke="#46647D" d="M491.001,216.973c5.845-0.76,18.512,2.301,25.863,2.045
		c-0.053-0.733-0.096-1.461-0.128-2.184c1.812,1.217,3.597,2.481,5.292,3.868c-9.192-0.538-26.55-3.203-29.976-2.885
		C491.697,217.531,491.346,217.25,491.001,216.973z"/>
	<path fill="#DFC139" stroke="#DFC139" d="M433.191,218.939c1.674,2.03,3.14,4.218,4.367,6.551
		C434.971,224.289,434.11,221.399,433.191,218.939z"/>
	<path fill="#DDC135" stroke="#DDC135" d="M440.629,230.102c3.889,5.09,7.183,10.605,10.817,15.88
		c3.129,4.867,6.599,9.521,9.473,14.552c-2.247-1.61-3.406-4.155-4.92-6.37c-4.59-6.45-8.724-13.208-13.261-19.7
		C441.782,233.146,441.15,231.632,440.629,230.102z"/>
	<path fill="#4A637A" stroke="#4A637A" d="M541.426,286.382c1.116-0.122,2.21-0.409,3.289-0.733c1.254,1.466,2.561,2.938,3.4,4.702
		C545.783,289.203,543.599,287.789,541.426,286.382z"/>
	<path fill="#455C72" stroke="#455C72" d="M530.067,321.93c1.195-0.298,2.444-0.313,3.65-0.016
		c5.398,1.27,10.876,2.125,16.284,3.326c-0.239-1.259-0.462-2.518-0.786-3.751c1.472,1.589,2.757,3.342,4.033,5.1
		C550.088,326.196,532.098,322.586,530.067,321.93z"/>
	<path fill="#4A5E6E" stroke="#4A5E6E" d="M563.687,389.24c3.167-0.468,6.025,1.217,9.032,1.86c0.372-0.685,0.754-1.365,1.142-2.04
		c0.887,1.19,1.764,2.417,2.37,3.793C572.029,391.737,567.768,390.738,563.687,389.24z"/>
	<path fill="#394A5A" stroke="#394A5A" d="M792.17,814.684c0.074-3.613-0.308-7.252,0.329-10.828
		c0.611,1.95,0.266,4.027,0.345,6.046c0,274.432,1.084,247.392-2.582,256.753C792.594,1022.467,792.17,1167.497,792.17,814.684z"/>
	<path fill="#141517" stroke="#141517" d="M780.391,1095.961c0.324-1.126,0.51-2.364,1.419-3.182
		c-1.158,4.426-2.715,8.756-4.139,13.107C777.841,1102.4,779.509,1099.276,780.391,1095.961z"/>
	<path fill="#D1B736" stroke="#D1B736" d="M490.539,1107.299c0.765,1.052,1.849,2.014,2.04,3.384
		c0.547,3.416,0.505,6.896,0.845,10.344c0.616,8.379,1.18,16.757,1.801,25.135c0.138,3.517,0.749,7.013,0.569,10.546
		c-23.882,2.688-47.758,5.393-71.645,8.06c0.048-5.881,0.521-11.752,0.818-17.623c0.58,12.533-0.68,13.024,0.255,16.55
		c4.182,0,58.882-6.36,59.415-6.423c3.507-0.579,7.156-0.377,10.541-1.599c0.037-3.278-0.531-6.519-0.696-9.781
		c-0.319-7.682-1.238-15.328-1.562-23.016C492.25,1117.664,492.882,1112.171,490.539,1107.299z"/>
	<path fill="#141517" stroke="#141517" d="M767.948,1135.818c-3.364,11.706-16.193,50.149-21.491,67.575
		c-0.218-4.027,1.732-7.704,3.002-11.407C751.829,1185.968,766.221,1138,767.948,1135.818z"/>
	<path fill="#366B9D" stroke="#366B9D" d="M1090.178,1609.684c0.021-2.412-0.999-4.734-1.408-7.093
		c-11.413-49.501-8.968-40.637-11.933-44.39c-346.153-372.084-328.428-353.286-330.379-354.808
		c-0.218-4.027,1.732-7.704,3.002-11.407c2.37-6.019,16.762-53.987,18.489-56.168c1.078-1.424,8.975-27.205,9.723-29.933
		c0.17-3.485,1.838-6.609,2.72-9.925c0.324-1.126,0.51-2.364,1.419-3.182c0.837-1.182,7.466-22.234,8.453-26.124
		c2.13-40.38,1.907,93.758,1.907-251.971c0.074-3.613-0.308-7.252,0.329-10.828c-3.896-9.688-82.517-195.469-85.496-202.492
		c-2.74-4.063,7.082,9.408-160.084-216.518c6.608,1.61,15.169,4.388,16.768,4.394c3.167-0.467,6.025,1.217,9.032,1.86
		c0.372-0.685,0.754-1.365,1.142-2.04c-14.956-22.33-30.066-44.56-45.027-66.885c1.809-0.375,3.04-0.715,4.883-0.26
		c5.398,1.27,10.876,2.125,16.284,3.326c-1.359-7.159,3.048,2.284-42.068-58.74c11.295,6.386,22.245,13.405,33.493,19.881
		c1.116-0.122,2.21-0.409,3.289-0.733c-0.414-0.542-50.413-66.035-53.714-68.675c5.845-0.76,18.512,2.301,25.863,2.046
		c-0.053-0.733-0.096-1.461-0.128-2.184c-29.157-21.719-58.506-43.178-87.722-64.818c-2.672-2.099-5.834-3.39-8.83-4.941
		C369.803,121.899,319.441,96.662,269.043,71.5c-1.657,0.098-165.901,31.924-169.297,33.275c0.592,4.439-1.372,0.716,15.599,28.924
		l0.42-0.276c1.249-1.073,2.922-1.094,4.468-1.28c11.115-2.093,22.304-3.809,33.376-6.105c7.396-0.978,14.653-2.789,22.043-3.831
		c9.999-2.003,20.088-3.512,30.092-5.483c2.72-0.457,5.478-1.323,8.256-0.792c4.734,0.914,9.335,2.364,14.005,3.56
		c21.847,5.456,43.587,11.327,65.397,16.916c0.058,0.138,0.17,0.414,0.228,0.553c2.593,0.962,5.377,1.679,8.129,2.115
		c2.694,0.016,4.92,1.689,7.257,2.805c26.687,13.33,53.406,26.591,80.071,39.964c2.38,1.179,4.936,2.13,6.886,4.006
		c0.967,0.51,1.945,0.994,2.943,1.451c2.518,0.287,4.936,1.328,6.62,3.267c0.228,0.122,0.68,0.367,0.909,0.489
		c2.13,0.133,4.133,0.978,5.456,2.704c0.234,0.122,0.701,0.361,0.935,0.483c2.864,0.494,5.865,1.615,7.725,3.958
		c16.587,24.865,33.121,49.761,49.734,74.61c1.318,2.083,3.379,4.139,2.911,6.832c-2.641,27.112-5.446,54.208-8.102,81.32
		c-0.691,5.743-0.845,11.561-1.976,17.251c-2.141,0.999-4.399,1.7-6.641,2.412c-29.609,9.861-59.207,19.743-88.8,29.636
		c-11.492,3.937-23.122,7.491-34.529,11.678c-1.142,3.703-1.663,7.555-2.492,11.332c-14.308,70.513-28.578,141.032-42.913,211.54
		c-0.59,3.262-1.844,6.657-0.691,9.946c2.428,7.385,4.713,14.813,7.034,22.235c26.373,84.088,52.763,168.17,79.163,252.253
		c1.663,4.861,2.54,10.211,5.982,14.239c18.521,26.995,37.084,53.958,55.557,80.985c5.276,7.342,10.095,14.998,15.386,22.33
		c12.863,18.988,25.996,37.791,38.875,56.774c1.339,2.019,3.002,3.852,3.995,6.094c0.877,2.582,0.728,5.366,0.972,8.06
		c0.707,9.6,1.312,19.206,2.072,28.802c0.133,3.581,0.813,7.178,0.271,10.769c-1.732,0.372-3.491,0.627-5.249,0.797
		c-85.183,9.146-66.336,6.877-74.641,9.685c-2.449,1.179-5.233,1.759-7.459,3.321c-2.146,0.632-4.213,1.52-6.221,2.502
		c-2.216,0.43-4.192,1.61-6.301,2.375c-43.09,17.68-36.515,14.086-39.14,18.76c-0.278,0.549-29.122,57.328-31.75,62.836
		c0.765,3.916,0.25,7.927,0.383,11.896c-0.011,9.207,0.638,18.409,0.505,27.622c0.234,5.026-0.468,10.132,0.568,15.099
		c55.843,51.053,51.18,43.97,85.033,71.432c1.404-0.775,58.484-32.711,59.404-33.764c1.063-1.96,3.358-2.625,4.766-4.261
		c-2.256,0.131-45.818,8.871-59.17,11.518c-1.004,0.106-2.263,0.452-2.965-0.494c-3.281-3.348-35.699-30.774-58.511-50.648
		c-0.039-1.658,3.867-40.547,3.921-41.08c2.752-2.067,11.814-4.61,14.313-6.503c1.366-1.63,6.95-3.207,8.873-3.544
		c1.776-0.613,20.929-8.086,22.043-9.303c3.628-2.458,7.158-2.872,10.419-4.043c2.625-1.227,5.573-0.909,8.384-1.01
		c107.421-7.225,45.444-0.732,119.95-14.515c-0.143,0.128-0.43,0.383-0.574,0.51c3.449,1.564,128.811,40.859,140.166,44.846
		c2.5,2.727,264.869,385.797,267.905,389.316c2.959,2.906,7.289,2.779,11.109,3.411c55.488,6.531,54.672,7.729,55.765,5.196
		c1.528-3.432,1.832-14.52,3.745-19.089c0.78-2.139,3.537-21.629,6.11-36.239c38.444,10.175,50.631,13.772,52.332,13.803
		c4.574-0.468,8.692,2.46,13.282,2.316C1094.14,1623.595,1089.025,1613.119,1090.178,1609.684z"/>
	<path fill="#141517" stroke="#141517" d="M543.525,1225.979c-0.143,0.128-0.43,0.383-0.574,0.51
		c-68.034,14.058-28.671,7.987-127.76,15.014c2.696-1.261-1.783-0.181,74.753-5.217
		C495.285,1236.521,523.968,1229.597,543.525,1225.979z"/>
	<path fill="#141517" stroke="#141517" d="M404.772,1245.546c2.587-1.753,5.727-2.747,8.777-3.448
		C410.691,1243.379,407.822,1244.813,404.772,1245.546z"/>
	<path fill="#141517" stroke="#141517" d="M382.729,1254.849c-2.927,1.238-5.828,2.603-8.873,3.544
		C375.222,1256.763,380.806,1255.186,382.729,1254.849z"/>
	<path fill="#3A5369" stroke="#3A5369" d="M325.61,1257.575c0.765,3.916,0.25,7.927,0.383,11.896
		c-0.011,9.207,0.638,18.409,0.505,27.622c0.234,5.026-0.468,10.132,0.568,15.099c-0.292-0.218-0.882-0.654-1.179-0.866
		C325.545,1286.388,324.775,1259.665,325.61,1257.575z"/>
	<path fill="#4C6178" stroke="#4C6178" d="M482.702,1343.31c-1.04,1.317-9.679,5.958-11.2,6.551c1.063-1.96,3.358-2.625,4.766-4.261
		c-2.256,0.131-45.818,8.871-59.17,11.518c-1.004,0.106-2.263,0.452-2.965-0.494C426.37,1354.549,468.337,1345.895,482.702,1343.31z
		"/>
	<path fill="#4A6278" stroke="#4A6278" d="M1091.022,1616.219c-0.542-2.136-1.589-4.319-0.845-6.535
		c0.835,1.795,5.102,20.95,5.387,22.325c-1.753-0.348-13.537-3.404-15.482-4.277c4.574-0.468,8.692,2.46,13.282,2.316
		C1093.58,1628.259,1093.817,1626.978,1091.022,1616.219z"/>
	<path fill="#141517" stroke="#141517" d="M1021.641,1650.169c-0.93,7.13-2.274,14.207-3.321,21.331
		c-21.756-2.757-43.529-5.398-65.285-8.166c-0.861-0.755-1.429-1.748-2.014-2.683c2.959,2.906,7.289,2.779,11.109,3.411
		c55.488,6.531,54.672,7.729,55.765,5.196C1019.423,1665.826,1019.727,1654.738,1021.641,1650.169z"/>
	<path fill="#151517" d="M263.64,289.814c-14.143-9.765-28.265-19.557-42.387-29.349c-0.579-0.547-1.381-0.494-2.088-0.319
		c-8.883,2.099-17.766,4.197-26.655,6.269c-2.784-9.531-5.292-19.143-8.028-28.685c-0.138-1.01-1.195-1.334-1.939-1.796
		c-18.059-9.563-36.112-19.127-54.171-28.685c-1.732-0.643-3.666-0.377-5.472-0.659c-12.48-0.749-24.95-1.748-37.435-2.412
		c0.414-8.846,1.185-17.676,1.679-26.517c0.041-1.144,0.266-2.26,0.463-3.379l0.012,0.008l27.944-40.443l-0.437-0.302L87.182,173.99
		l0.218,0.151c-0.756,1.181-0.586,2.702-0.762,4.059c-1.158,17.708-2.407,35.411-3.565,53.119
		c-0.234,5.324-1.073,10.652-0.515,15.981c2.178,27.234,4.107,54.489,6.365,81.713c1.089,2.725,3.22,4.968,4.691,7.518
		c44.626,66.897,26.715,43.104,63.909,82.993c-0.56-4.789-11.748-35.29-11.354-39.985c-0.563-16.119-0.946-32.249-1.562-48.369
		c-0.069-0.908,0.074-1.817,0.733-2.481c15.386-20.056,30.613-40.235,46.047-60.249c-4.277,15.131-8.729,30.215-13.208,45.288
		c-3.985,11.417-7.709,22.957-11.938,34.279c-4.096,3.066-8.602,5.589-12.852,8.448c-1.514,1.105-3.363,1.806-4.601,3.246
		c54.85,2.298,54.001,2.533,59.048,2.301c58.498-15.292,51.003-14.177,53.544-13.134c5.387,3.034,10.886,5.876,16.247,8.963
		c-0.074,0.091-0.154,0.176-0.23,0.266c0.163,0.053,0.326,0.103,0.485,0.171c0.177-0.194,0.355-0.387,0.532-0.58
		C273.575,335.043,268.347,312.479,263.64,289.814z"/>
</g>
</svg>
